<svg xmlns="http://www.w3.org/2000/svg" viewBox="0 0 32 32" fill="none">
  <circle cx="16" cy="16" r="15" fill="#ec4899" />
  <g fill="#fff">
    <path d="M16 6l1.09 3.36h3.53l-2.86 2.08 1.1 3.36L16 12.72l-2.86 2.08 1.1-3.36-2.86-2.08h3.53z" />
    <path d="M10 16l.65 2h2.12l-1.72 1.25.66 2L10 20l-1.71 1.25.66-2L7.23 18h2.12z" opacity="0.8" />
    <path d="M22 16l.65 2h2.12l-1.72 1.25.66 2L22 20l-1.71 1.25.66-2L19.23 18h2.12z" opacity="0.8" />
    <path d="M16 21l.65 2h2.12l-1.72 1.25.66 2L16 25l-1.71 1.25.66-2L13.23 23h2.12z" opacity="0.6" />
  </g>
</svg>
